<mxfile host="65bd71144e">
    <diagram id="Gc6o6weTZkOCunGUCkIv" name="第 1 页">
        <mxGraphModel dx="608" dy="575" grid="1" gridSize="10" guides="1" tooltips="1" connect="1" arrows="1" fold="1" page="1" pageScale="1" pageWidth="827" pageHeight="1169" math="0" shadow="0">
            <root>
                <mxCell id="0"/>
                <mxCell id="1" parent="0"/>
                <mxCell id="2" value="Woocommerce" style="shape=folder;fontStyle=1;spacingTop=10;tabWidth=40;tabHeight=14;tabPosition=left;html=1;labelPosition=center;verticalLabelPosition=top;align=center;verticalAlign=bottom;fillColor=#d5e8d4;strokeColor=#82b366;" vertex="1" parent="1">
                    <mxGeometry x="300" y="50" width="310" height="540" as="geometry"/>
                </mxCell>
                <mxCell id="3" value="PayerMax Plugin" style="shape=folder;fontStyle=1;spacingTop=10;tabWidth=40;tabHeight=14;tabPosition=left;html=1;labelPosition=center;verticalLabelPosition=top;align=center;verticalAlign=bottom;fillColor=#dae8fc;strokeColor=#6c8ebf;" vertex="1" parent="1">
                    <mxGeometry x="80" y="50" width="180" height="540" as="geometry"/>
                </mxCell>
                <mxCell id="4" value=":PaymentGateway" style="shape=umlLifeline;perimeter=lifelinePerimeter;container=1;collapsible=0;recursiveResize=0;rounded=0;shadow=0;strokeWidth=1;" vertex="1" parent="1">
                    <mxGeometry x="120" y="80" width="100" height="510" as="geometry"/>
                </mxCell>
                <mxCell id="5" value="process_refund()" style="points=[];perimeter=orthogonalPerimeter;rounded=0;shadow=0;strokeWidth=1;labelPosition=center;verticalLabelPosition=top;align=center;verticalAlign=bottom;" vertex="1" parent="4">
                    <mxGeometry x="45" y="70" width="10" height="250" as="geometry"/>
                </mxCell>
                <mxCell id="6" value="get_order()" style="points=[];perimeter=orthogonalPerimeter;rounded=0;shadow=0;strokeWidth=1;labelPosition=left;verticalLabelPosition=middle;align=right;verticalAlign=middle;fillColor=#d5e8d4;strokeColor=#82b366;fontColor=#666666;" vertex="1" parent="4">
                    <mxGeometry x="50" y="90" width="10" height="30" as="geometry"/>
                </mxCell>
                <mxCell id="7" value="" style="html=1;points=[];perimeter=orthogonalPerimeter;fillColor=#ffe6cc;strokeColor=#d79b00;" vertex="1" parent="4">
                    <mxGeometry x="50" y="210" width="10" height="20" as="geometry"/>
                </mxCell>
                <mxCell id="8" value="退款数据&lt;br&gt;+ 签名" style="edgeStyle=orthogonalEdgeStyle;html=1;align=left;spacingLeft=2;endArrow=block;rounded=0;entryX=1;entryY=0;fontColor=#666666;fillColor=#ffe6cc;strokeColor=#d79b00;" edge="1" parent="4">
                    <mxGeometry relative="1" as="geometry">
                        <mxPoint x="55" y="200" as="sourcePoint"/>
                        <mxPoint x="60" y="220" as="targetPoint"/>
                        <Array as="points">
                            <mxPoint x="85" y="200"/>
                        </Array>
                    </mxGeometry>
                </mxCell>
                <mxCell id="9" value="&amp;nbsp; &amp;nbsp;&amp;nbsp;" style="html=1;points=[];perimeter=orthogonalPerimeter;labelPosition=left;verticalLabelPosition=middle;align=right;verticalAlign=middle;fillColor=#ffe6cc;strokeColor=#d79b00;" vertex="1" parent="4">
                    <mxGeometry x="50" y="250" width="10" height="40" as="geometry"/>
                </mxCell>
                <mxCell id="10" value="webhook" style="html=1;points=[];perimeter=orthogonalPerimeter;fontColor=#666666;labelPosition=center;verticalLabelPosition=top;align=center;verticalAlign=bottom;" vertex="1" parent="4">
                    <mxGeometry x="45" y="380" width="10" height="120" as="geometry"/>
                </mxCell>
                <mxCell id="11" value="" style="html=1;points=[];perimeter=orthogonalPerimeter;fontColor=#666666;" vertex="1" parent="4">
                    <mxGeometry x="50" y="430" width="10" height="60" as="geometry"/>
                </mxCell>
                <mxCell id="12" value="&lt;font style=&quot;font-size: 7px;&quot;&gt;验证回调结果&lt;br&gt;&lt;/font&gt;" style="edgeStyle=orthogonalEdgeStyle;html=1;align=left;spacingLeft=2;endArrow=block;rounded=0;entryX=1;entryY=0;fontColor=#666666;fontSize=7;labelPosition=right;verticalLabelPosition=middle;verticalAlign=middle;" edge="1" parent="4" target="11">
                    <mxGeometry relative="1" as="geometry">
                        <mxPoint x="55" y="410" as="sourcePoint"/>
                        <Array as="points">
                            <mxPoint x="85" y="410"/>
                        </Array>
                    </mxGeometry>
                </mxCell>
                <mxCell id="13" value="是否可以退款" style="edgeStyle=orthogonalEdgeStyle;html=1;align=left;spacingLeft=2;endArrow=block;rounded=0;entryX=1;entryY=0;fontColor=#666666;fillColor=#ffe6cc;strokeColor=#82B366;" edge="1" parent="4">
                    <mxGeometry relative="1" as="geometry">
                        <mxPoint x="55" y="135" as="sourcePoint"/>
                        <mxPoint x="60" y="155" as="targetPoint"/>
                        <Array as="points">
                            <mxPoint x="85" y="135"/>
                        </Array>
                    </mxGeometry>
                </mxCell>
                <mxCell id="14" value=":Order" style="shape=umlLifeline;perimeter=lifelinePerimeter;container=1;collapsible=0;recursiveResize=0;rounded=0;shadow=0;strokeWidth=1;" vertex="1" parent="1">
                    <mxGeometry x="330" y="80" width="100" height="510" as="geometry"/>
                </mxCell>
                <mxCell id="15" value="" style="points=[];perimeter=orthogonalPerimeter;rounded=0;shadow=0;strokeWidth=1;" vertex="1" parent="14">
                    <mxGeometry x="45" y="80" width="10" height="410" as="geometry"/>
                </mxCell>
                <mxCell id="16" value="返回订单对象" style="verticalAlign=bottom;endArrow=open;dashed=1;endSize=8;shadow=0;strokeWidth=1;entryX=1.043;entryY=0.718;entryDx=0;entryDy=0;entryPerimeter=0;" edge="1" parent="1">
                    <mxGeometry x="180.43000000000006" y="194.53999999999996" as="geometry">
                        <mxPoint x="180.43000000000006" y="194.53999999999996" as="targetPoint"/>
                        <mxPoint x="374" y="195" as="sourcePoint"/>
                        <mxPoint as="offset"/>
                    </mxGeometry>
                </mxCell>
                <mxCell id="17" value="" style="shape=umlLifeline;participant=umlActor;perimeter=lifelinePerimeter;whiteSpace=wrap;html=1;container=1;collapsible=0;recursiveResize=0;verticalAlign=top;spacingTop=36;outlineConnect=0;" vertex="1" parent="1">
                    <mxGeometry x="20" y="80" width="20" height="510" as="geometry"/>
                </mxCell>
                <mxCell id="18" value="发起退款" style="verticalAlign=bottom;startArrow=oval;endArrow=block;startSize=8;shadow=0;strokeWidth=1;" edge="1" parent="1" source="17" target="5">
                    <mxGeometry x="29.5" y="160" as="geometry">
                        <mxPoint x="80" y="150" as="sourcePoint"/>
                        <Array as="points">
                            <mxPoint x="100" y="160"/>
                        </Array>
                    </mxGeometry>
                </mxCell>
                <mxCell id="19" style="edgeStyle=orthogonalEdgeStyle;rounded=0;orthogonalLoop=1;jettySize=auto;html=1;dashed=1;" edge="1" parent="1">
                    <mxGeometry x="180" y="176" as="geometry">
                        <mxPoint x="180" y="178" as="sourcePoint"/>
                        <mxPoint x="376" y="176" as="targetPoint"/>
                        <Array as="points">
                            <mxPoint x="180" y="177"/>
                            <mxPoint x="280" y="177"/>
                            <mxPoint x="280" y="176"/>
                        </Array>
                    </mxGeometry>
                </mxCell>
                <mxCell id="20" value="查询订单" style="edgeLabel;html=1;align=center;verticalAlign=middle;resizable=0;points=[];" vertex="1" connectable="0" parent="19">
                    <mxGeometry x="-0.1544" relative="1" as="geometry">
                        <mxPoint x="12" y="-8" as="offset"/>
                    </mxGeometry>
                </mxCell>
                <mxCell id="21" value="PayerMax" style="shape=umlLifeline;perimeter=lifelinePerimeter;container=1;collapsible=0;recursiveResize=0;rounded=0;shadow=0;strokeWidth=1;fillColor=#f8cecc;strokeColor=#b85450;" vertex="1" parent="1">
                    <mxGeometry x="650" y="80" width="100" height="510" as="geometry"/>
                </mxCell>
                <mxCell id="22" value="&lt;span style=&quot;color: rgb(96 , 98 , 102) ; font-family: &amp;#34;segoe ui&amp;#34; , &amp;#34;helvetica neue&amp;#34; , &amp;#34;helvetica&amp;#34; , &amp;#34;arial&amp;#34; , &amp;#34;sans-serif&amp;#34; , &amp;#34;pingfang sc&amp;#34; , &amp;#34;hiragino sans gb&amp;#34; , &amp;#34;microsoft yahe&amp;#34; ; font-size: 14px ; background-color: rgb(255 , 255 , 255)&quot;&gt;refund&lt;/span&gt;" style="html=1;points=[];perimeter=orthogonalPerimeter;fontColor=#666666;labelPosition=center;verticalLabelPosition=top;align=center;verticalAlign=bottom;" vertex="1" parent="21">
                    <mxGeometry x="45" y="247" width="10" height="43" as="geometry"/>
                </mxCell>
                <mxCell id="23" value="通知" style="html=1;points=[];perimeter=orthogonalPerimeter;fontColor=#666666;labelPosition=center;verticalLabelPosition=top;align=center;verticalAlign=bottom;" vertex="1" parent="21">
                    <mxGeometry x="45" y="372" width="10" height="50" as="geometry"/>
                </mxCell>
                <mxCell id="24" value="请求退款API" style="html=1;verticalAlign=bottom;endArrow=block;entryX=0.033;entryY=0.232;rounded=0;fontColor=#666666;exitX=1.053;exitY=0.242;exitDx=0;exitDy=0;exitPerimeter=0;entryDx=0;entryDy=0;entryPerimeter=0;dashed=1;" edge="1" parent="1" source="9" target="22">
                    <mxGeometry x="180.52999999999997" y="336.976" as="geometry">
                        <mxPoint x="169.73076923076928" y="332" as="sourcePoint"/>
                        <mxPoint x="535" y="332" as="targetPoint"/>
                    </mxGeometry>
                </mxCell>
                <mxCell id="25" value="返回" style="html=1;verticalAlign=bottom;endArrow=open;dashed=1;endSize=8;exitX=0.01;exitY=0.795;rounded=0;fontColor=#666666;entryX=1.059;entryY=0.799;entryDx=0;entryDy=0;entryPerimeter=0;exitDx=0;exitDy=0;exitPerimeter=0;" edge="1" parent="1" source="22" target="9">
                    <mxGeometry x="180.58999999999992" y="361.18499999999995" as="geometry">
                        <mxPoint x="465" y="396" as="targetPoint"/>
                    </mxGeometry>
                </mxCell>
                <mxCell id="26" style="edgeStyle=orthogonalEdgeStyle;rounded=0;orthogonalLoop=1;jettySize=auto;html=1;entryX=0.95;entryY=0.138;entryDx=0;entryDy=0;entryPerimeter=0;fontColor=#666666;startArrow=none;startFill=0;dashed=1;" edge="1" parent="1" source="23" target="10">
                    <mxGeometry x="174.5" y="476.55999999999995" as="geometry"/>
                </mxCell>
                <mxCell id="27" value="异步通知支付结果" style="edgeLabel;html=1;align=center;verticalAlign=middle;resizable=0;points=[];fontColor=#666666;" connectable="0" vertex="1" parent="26">
                    <mxGeometry x="0.0732" y="-4" relative="1" as="geometry">
                        <mxPoint as="offset"/>
                    </mxGeometry>
                </mxCell>
                <mxCell id="28" value="can_refund_order()" style="points=[];perimeter=orthogonalPerimeter;rounded=0;shadow=0;strokeWidth=1;labelPosition=left;verticalLabelPosition=middle;align=right;verticalAlign=middle;fillColor=#d5e8d4;strokeColor=#82b366;fontColor=#666666;" vertex="1" parent="1">
                    <mxGeometry x="170" y="225" width="10" height="30" as="geometry"/>
                </mxCell>
                <mxCell id="29" style="edgeStyle=none;html=1;" edge="1" parent="1" source="9" target="17">
                    <mxGeometry x="29.5" y="350" as="geometry"/>
                </mxCell>
                <mxCell id="30" value="提示用户API&lt;br&gt;&amp;nbsp;的相应" style="edgeLabel;html=1;align=center;verticalAlign=middle;resizable=0;points=[];" vertex="1" connectable="0" parent="29">
                    <mxGeometry x="0.3397" y="-1" relative="1" as="geometry">
                        <mxPoint x="14" as="offset"/>
                    </mxGeometry>
                </mxCell>
                <mxCell id="31" value=":RefundOrder" style="shape=umlLifeline;perimeter=lifelinePerimeter;container=1;collapsible=0;recursiveResize=0;rounded=0;shadow=0;strokeWidth=1;" vertex="1" parent="1">
                    <mxGeometry x="470" y="80" width="100" height="510" as="geometry"/>
                </mxCell>
                <mxCell id="32" value="" style="points=[];perimeter=orthogonalPerimeter;rounded=0;shadow=0;strokeWidth=1;" vertex="1" parent="31">
                    <mxGeometry x="45" y="420" width="10" height="40" as="geometry"/>
                </mxCell>
                <mxCell id="33" style="edgeStyle=orthogonalEdgeStyle;rounded=0;orthogonalLoop=1;jettySize=auto;html=1;entryX=-0.15;entryY=0.927;entryDx=0;entryDy=0;entryPerimeter=0;fontSize=7;dashed=1;" edge="1" parent="1">
                    <mxGeometry x="180" y="560" as="geometry">
                        <mxPoint x="180" y="560" as="sourcePoint"/>
                        <mxPoint x="373.5" y="560.0699999999999" as="targetPoint"/>
                        <Array as="points">
                            <mxPoint x="330" y="560"/>
                            <mxPoint x="330" y="560"/>
                        </Array>
                    </mxGeometry>
                </mxCell>
                <mxCell id="34" value="全部退款更新订单退款状态" style="edgeLabel;html=1;align=center;verticalAlign=middle;resizable=0;points=[];fontSize=7;" vertex="1" connectable="0" parent="33">
                    <mxGeometry x="-0.1219" y="2" relative="1" as="geometry">
                        <mxPoint x="1" as="offset"/>
                    </mxGeometry>
                </mxCell>
                <mxCell id="35" style="edgeStyle=orthogonalEdgeStyle;rounded=0;orthogonalLoop=1;jettySize=auto;html=1;dashed=1;fontSize=7;entryX=0;entryY=0.5;entryDx=0;entryDy=0;entryPerimeter=0;" edge="1" parent="1" target="32">
                    <mxGeometry x="180" y="520" as="geometry">
                        <mxPoint x="180" y="520" as="sourcePoint"/>
                        <mxPoint x="512" y="520" as="targetPoint"/>
                    </mxGeometry>
                </mxCell>
                <mxCell id="36" value="记录 refundTradeNo" style="edgeLabel;html=1;align=center;verticalAlign=middle;resizable=0;points=[];fontSize=7;" vertex="1" connectable="0" parent="35">
                    <mxGeometry x="-0.0633" relative="1" as="geometry">
                        <mxPoint as="offset"/>
                    </mxGeometry>
                </mxCell>
                <mxCell id="37" style="edgeStyle=orthogonalEdgeStyle;rounded=0;orthogonalLoop=1;jettySize=auto;html=1;dashed=1;fontSize=7;entryX=0;entryY=0.926;entryDx=0;entryDy=0;entryPerimeter=0;" edge="1" parent="1" source="11" target="15">
                    <mxGeometry x="180" y="539.6600000000001" as="geometry">
                        <mxPoint x="370" y="540" as="targetPoint"/>
                    </mxGeometry>
                </mxCell>
                <mxCell id="38" value="新增 订单备注" style="edgeLabel;html=1;align=center;verticalAlign=middle;resizable=0;points=[];fontSize=7;" vertex="1" connectable="0" parent="37">
                    <mxGeometry x="-0.3601" y="1" relative="1" as="geometry">
                        <mxPoint as="offset"/>
                    </mxGeometry>
                </mxCell>
            </root>
        </mxGraphModel>
    </diagram>
</mxfile>
